Normalized EMG Linear Envelopes
nRows=59
nColumns=17

endheader
time	        VM	        VL	        RF	       GRA	        TA	   ADDLONG	   SEMIMEM	      BFLH	        GM	        GL	       TFL	   GLUTMAX	   GLUTMED	      PIRI	    OBTINT	        QF	
1.575	  0.445265	  0.396473	  0.045685	  0.594171	  0.209035	  0.125619	  0.495155	  0.563823	  0.169217	  0.140436	  0.097531	  0.239640	  0.134089	  0.581885	  1.118501	  0.594460	
1.5755	  0.445534	  0.400585	  0.046844	  0.588931	  0.207087	  0.125582	  0.490645	  0.558750	  0.167371	  0.140634	  0.099465	  0.240749	  0.132536	  0.582286	  1.124467	  0.593595	
1.576	  0.445745	  0.404677	  0.048021	  0.583627	  0.205129	  0.125552	  0.486086	  0.553621	  0.165544	  0.140840	  0.101420	  0.241866	  0.131041	  0.582662	  1.130502	  0.592703	
1.5765	  0.445897	  0.408748	  0.049217	  0.578261	  0.203164	  0.125531	  0.481482	  0.548437	  0.163736	  0.141054	  0.103394	  0.242990	  0.129601	  0.583014	  1.136607	  0.591784	
1.577	  0.445992	  0.412798	  0.050431	  0.572838	  0.201192	  0.125519	  0.476833	  0.543203	  0.161948	  0.141277	  0.105389	  0.244120	  0.128217	  0.583342	  1.142784	  0.590839	
1.5775	  0.446029	  0.416823	  0.051664	  0.567360	  0.199215	  0.125518	  0.472144	  0.537920	  0.160180	  0.141507	  0.107403	  0.245257	  0.126886	  0.583646	  1.149034	  0.589866	
1.578	  0.446010	  0.420823	  0.052915	  0.561833	  0.197233	  0.125529	  0.467417	  0.532592	  0.158432	  0.141744	  0.109436	  0.246399	  0.125608	  0.583926	  1.155357	  0.588866	
1.5785	  0.445935	  0.424796	  0.054185	  0.556259	  0.195249	  0.125551	  0.462655	  0.527223	  0.156705	  0.141989	  0.111488	  0.247546	  0.124380	  0.584184	  1.161755	  0.587840	
1.579	  0.445805	  0.428740	  0.055474	  0.550643	  0.193262	  0.125585	  0.457862	  0.521814	  0.154998	  0.142240	  0.113558	  0.248697	  0.123203	  0.584420	  1.168229	  0.586786	
1.5795	  0.445620	  0.432653	  0.056782	  0.544989	  0.191274	  0.125633	  0.453040	  0.516370	  0.153313	  0.142499	  0.115645	  0.249851	  0.122074	  0.584633	  1.174782	  0.585705	
1.58	  0.445381	  0.436534	  0.058108	  0.539302	  0.189287	  0.125694	  0.448192	  0.510892	  0.151650	  0.142763	  0.117750	  0.251008	  0.120992	  0.584825	  1.181417	  0.584597	
1.5805	  0.445087	  0.440380	  0.059453	  0.533585	  0.187300	  0.125770	  0.443320	  0.505385	  0.150009	  0.143034	  0.119872	  0.252166	  0.119955	  0.584995	  1.188138	  0.583463	
1.581	  0.444739	  0.444189	  0.060817	  0.527844	  0.185315	  0.125861	  0.438428	  0.499851	  0.148390	  0.143311	  0.122010	  0.253325	  0.118964	  0.585143	  1.194950	  0.582302	
1.5815	  0.444338	  0.447961	  0.062199	  0.522081	  0.183333	  0.125967	  0.433519	  0.494292	  0.146793	  0.143594	  0.124163	  0.254485	  0.118015	  0.585269	  1.201859	  0.581114	
1.582	  0.443883	  0.451692	  0.063600	  0.516302	  0.181355	  0.126089	  0.428593	  0.488711	  0.145221	  0.143883	  0.126332	  0.255642	  0.117108	  0.585373	  1.208873	  0.579899	
1.5825	  0.443374	  0.455380	  0.065019	  0.510509	  0.179381	  0.126227	  0.423655	  0.483112	  0.143671	  0.144178	  0.128516	  0.256798	  0.116241	  0.585454	  1.215997	  0.578656	
1.583	  0.442811	  0.459025	  0.066457	  0.504708	  0.177412	  0.126382	  0.418706	  0.477498	  0.142146	  0.144479	  0.130713	  0.257950	  0.115414	  0.585513	  1.223240	  0.577385	
1.5835	  0.442195	  0.462623	  0.067914	  0.498902	  0.175449	  0.126554	  0.413748	  0.471870	  0.140646	  0.144786	  0.132924	  0.259097	  0.114625	  0.585548	  1.230609	  0.576084	
1.584	  0.441525	  0.466173	  0.069388	  0.493094	  0.173493	  0.126744	  0.408784	  0.466233	  0.139170	  0.145100	  0.135148	  0.260239	  0.113872	  0.585558	  1.238111	  0.574753	
1.5845	  0.440803	  0.469672	  0.070881	  0.487287	  0.171545	  0.126952	  0.403816	  0.460589	  0.137720	  0.145419	  0.137384	  0.261374	  0.113155	  0.585544	  1.245755	  0.573392	
1.585	  0.440029	  0.473118	  0.072392	  0.481486	  0.169606	  0.127177	  0.398845	  0.454941	  0.136295	  0.145745	  0.139632	  0.262501	  0.112472	  0.585504	  1.253546	  0.571998	
1.5855	  0.439204	  0.476509	  0.073921	  0.475693	  0.167676	  0.127421	  0.393873	  0.449291	  0.134897	  0.146076	  0.141891	  0.263619	  0.111822	  0.585436	  1.261493	  0.570571	
1.586	  0.438328	  0.479842	  0.075468	  0.469912	  0.165756	  0.127683	  0.388902	  0.443643	  0.133524	  0.146414	  0.144160	  0.264727	  0.111204	  0.585340	  1.269601	  0.569109	
1.5865	  0.437402	  0.483115	  0.077032	  0.464145	  0.163848	  0.127965	  0.383934	  0.437999	  0.132179	  0.146757	  0.146440	  0.265825	  0.110616	  0.585215	  1.277877	  0.567612	
1.587	  0.436427	  0.486325	  0.078614	  0.458396	  0.161953	  0.128265	  0.378969	  0.432362	  0.130860	  0.147106	  0.148728	  0.266911	  0.110058	  0.585058	  1.286326	  0.566079	
1.5875	  0.435402	  0.489472	  0.080213	  0.452667	  0.160070	  0.128584	  0.374010	  0.426734	  0.129568	  0.147461	  0.151026	  0.267984	  0.109527	  0.584870	  1.294954	  0.564506	
1.588	  0.434328	  0.492554	  0.081829	  0.446961	  0.158201	  0.128922	  0.369058	  0.421118	  0.128303	  0.147823	  0.153331	  0.269044	  0.109024	  0.584649	  1.303766	  0.562894	
1.5885	  0.433206	  0.495568	  0.083462	  0.441281	  0.156347	  0.129279	  0.364114	  0.415516	  0.127066	  0.148192	  0.155644	  0.270089	  0.108547	  0.584394	  1.312767	  0.561240	
1.589	  0.432036	  0.498513	  0.085112	  0.435630	  0.154508	  0.129656	  0.359178	  0.409930	  0.125856	  0.148567	  0.157964	  0.271119	  0.108094	  0.584104	  1.321961	  0.559543	
1.5895	  0.430820	  0.501388	  0.086778	  0.430009	  0.152686	  0.130052	  0.354253	  0.404364	  0.124674	  0.148950	  0.160290	  0.272133	  0.107664	  0.583779	  1.331355	  0.557802	
1.59	  0.429558	  0.504192	  0.088460	  0.424422	  0.150880	  0.130467	  0.349339	  0.398818	  0.123520	  0.149342	  0.162621	  0.273129	  0.107257	  0.583418	  1.340951	  0.556014	
1.5905	  0.428253	  0.506922	  0.090158	  0.418871	  0.149093	  0.130902	  0.344437	  0.393294	  0.122394	  0.149741	  0.164957	  0.274106	  0.106872	  0.583020	  1.350753	  0.554180	
1.591	  0.426905	  0.509578	  0.091872	  0.413358	  0.147324	  0.131356	  0.339547	  0.387795	  0.121295	  0.150150	  0.167297	  0.275064	  0.106506	  0.582587	  1.360767	  0.552299	
1.5915	  0.425516	  0.512157	  0.093601	  0.407886	  0.145575	  0.131829	  0.334672	  0.382322	  0.120225	  0.150568	  0.169640	  0.276000	  0.106161	  0.582116	  1.370996	  0.550370	
1.592	  0.424087	  0.514657	  0.095345	  0.402457	  0.143846	  0.132320	  0.329812	  0.376877	  0.119182	  0.150996	  0.171986	  0.276913	  0.105834	  0.581609	  1.381442	  0.548394	
1.5925	  0.422620	  0.517078	  0.097103	  0.397074	  0.142138	  0.132831	  0.324968	  0.371461	  0.118168	  0.151434	  0.174333	  0.277803	  0.105526	  0.581065	  1.392110	  0.546372	
1.593	  0.421117	  0.519418	  0.098876	  0.391739	  0.140451	  0.133360	  0.320142	  0.366076	  0.117182	  0.151882	  0.176681	  0.278667	  0.105236	  0.580484	  1.403003	  0.544304	
1.5935	  0.419577	  0.521674	  0.100662	  0.386455	  0.138787	  0.133909	  0.315336	  0.360723	  0.116224	  0.152342	  0.179030	  0.279504	  0.104963	  0.579865	  1.414124	  0.542191	
1.594	  0.418004	  0.523847	  0.102462	  0.381224	  0.137145	  0.134475	  0.310551	  0.355404	  0.115295	  0.152813	  0.181378	  0.280314	  0.104707	  0.579208	  1.425475	  0.540034	
1.5945	  0.416398	  0.525933	  0.104275	  0.376049	  0.135527	  0.135060	  0.305789	  0.350119	  0.114394	  0.153296	  0.183725	  0.281093	  0.104468	  0.578512	  1.437059	  0.537834	
1.595	  0.414759	  0.527931	  0.106100	  0.370932	  0.133933	  0.135662	  0.301051	  0.344870	  0.113522	  0.153791	  0.186071	  0.281841	  0.104245	  0.577778	  1.448877	  0.535594	
1.5955	  0.413091	  0.529840	  0.107938	  0.365875	  0.132364	  0.136283	  0.296339	  0.339657	  0.112679	  0.154298	  0.188415	  0.282557	  0.104037	  0.577003	  1.460932	  0.533314	
1.596	  0.411392	  0.531659	  0.109787	  0.360880	  0.130819	  0.136921	  0.291656	  0.334482	  0.111864	  0.154819	  0.190758	  0.283239	  0.103845	  0.576189	  1.473225	  0.530995	
1.5965	  0.409666	  0.533385	  0.111648	  0.355949	  0.129301	  0.137576	  0.287002	  0.329345	  0.111079	  0.155352	  0.193099	  0.283885	  0.103667	  0.575333	  1.485757	  0.528641	
1.597	  0.407913	  0.535017	  0.113520	  0.351085	  0.127808	  0.138249	  0.282381	  0.324247	  0.110322	  0.155899	  0.195439	  0.284495	  0.103504	  0.574435	  1.498528	  0.526251	
1.5975	  0.406133	  0.536554	  0.115403	  0.346290	  0.126342	  0.138938	  0.277793	  0.319189	  0.109595	  0.156459	  0.197776	  0.285068	  0.103354	  0.573494	  1.511539	  0.523828	
1.598	  0.404328	  0.537993	  0.117297	  0.341564	  0.124902	  0.139643	  0.273241	  0.314171	  0.108896	  0.157033	  0.200112	  0.285601	  0.103218	  0.572508	  1.524790	  0.521373	
1.5985	  0.402498	  0.539332	  0.119202	  0.336910	  0.123490	  0.140364	  0.268725	  0.309194	  0.108226	  0.157620	  0.202446	  0.286095	  0.103094	  0.571478	  1.538279	  0.518887	
1.599	  0.400645	  0.540570	  0.121117	  0.332330	  0.122106	  0.141101	  0.264249	  0.304258	  0.107585	  0.158222	  0.204778	  0.286549	  0.102984	  0.570401	  1.552006	  0.516372	
1.5995	  0.398768	  0.541704	  0.123042	  0.327824	  0.120749	  0.141854	  0.259813	  0.299365	  0.106973	  0.158837	  0.207108	  0.286960	  0.102886	  0.569277	  1.565968	  0.513830	
1.6	  0.396868	  0.542733	  0.124977	  0.323395	  0.119421	  0.142623	  0.255418	  0.294513	  0.106389	  0.159466	  0.209435	  0.287329	  0.102800	  0.568104	  1.580165	  0.511261	
1.6005	  0.394946	  0.543653	  0.126922	  0.319044	  0.118122	  0.143407	  0.251068	  0.289704	  0.105834	  0.160110	  0.211761	  0.287654	  0.102726	  0.566884	  1.594594	  0.508667	
1.601	  0.393002	  0.544463	  0.128875	  0.314772	  0.116850	  0.144208	  0.246762	  0.284938	  0.105308	  0.160768	  0.214084	  0.287935	  0.102663	  0.565614	  1.609251	  0.506049	
1.6015	  0.391036	  0.545160	  0.130838	  0.310580	  0.115608	  0.145025	  0.242502	  0.280216	  0.104810	  0.161440	  0.216405	  0.288171	  0.102612	  0.564296	  1.624134	  0.503408	
1.602	  0.389050	  0.545742	  0.132809	  0.306469	  0.114395	  0.145858	  0.238290	  0.275538	  0.104341	  0.162127	  0.218724	  0.288361	  0.102571	  0.562928	  1.639239	  0.500746	
1.6025	  0.387043	  0.546208	  0.134788	  0.302441	  0.113211	  0.146709	  0.234127	  0.270904	  0.103899	  0.162828	  0.221041	  0.288503	  0.102541	  0.561511	  1.654561	  0.498062	
1.603	  0.385017	  0.546555	  0.136774	  0.298495	  0.112057	  0.147576	  0.230014	  0.266315	  0.103486	  0.163544	  0.223357	  0.288597	  0.102522	  0.560046	  1.670096	  0.495359	
1.6035	  0.382971	  0.546781	  0.138768	  0.294634	  0.110932	  0.148460	  0.225952	  0.261770	  0.103101	  0.164274	  0.225670	  0.288641	  0.102512	  0.558533	  1.685840	  0.492637	
1.604	  0.380907	  0.546884	  0.140770	  0.290857	  0.109836	  0.149362	  0.221943	  0.257270	  0.102745	  0.165019	  0.227982	  0.288634	  0.102512	  0.556975	  1.701786	  0.489898	
